<svg width="16" height="19" viewBox="0 0 16 19" fill="none" xmlns="http://www.w3.org/2000/svg">
<path d="M0.84668 18.373C0.624023 18.373 0.430664 18.291 0.266602 18.127C0.108398 17.9688 0.0292969 17.7812 0.0292969 17.5645V2.97461C0.0292969 2.57617 0.120117 2.25684 0.301758 2.0166C0.489258 1.77051 0.735352 1.57715 1.04004 1.43652C1.28027 1.33105 1.51758 1.24316 1.75195 1.17285C1.98633 1.09668 2.25586 1.04102 2.56055 1.00586C2.86523 0.970703 3.24023 0.953125 3.68555 0.953125C4.48242 0.953125 5.22656 1.03223 5.91797 1.19043C6.61523 1.34863 7.29199 1.53613 7.94824 1.75293C8.61035 1.96387 9.27832 2.15137 9.95215 2.31543C10.6318 2.47363 11.3525 2.55273 12.1143 2.55273C12.8232 2.55273 13.3887 2.49707 13.8105 2.38574C14.2324 2.26855 14.5693 2.20996 14.8213 2.20996C15.1201 2.20996 15.3662 2.29492 15.5596 2.46484C15.7588 2.62891 15.8584 2.85449 15.8584 3.1416V11.9043C15.8584 12.3145 15.7676 12.6514 15.5859 12.915C15.4102 13.1729 15.167 13.3721 14.8564 13.5127C14.6279 13.6182 14.3965 13.709 14.1621 13.7852C13.9277 13.8555 13.6553 13.9082 13.3447 13.9434C13.04 13.9785 12.6621 13.9961 12.2109 13.9961C11.4375 13.9961 10.7109 13.917 10.0312 13.7588C9.35156 13.5947 8.68359 13.4072 8.02734 13.1963C7.37695 12.9854 6.70605 12.8008 6.01465 12.6426C5.32324 12.4785 4.5791 12.3965 3.78223 12.3965C3.21387 12.3965 2.74805 12.4463 2.38477 12.5459C2.02148 12.6396 1.78125 12.71 1.66406 12.7568V17.5645C1.66406 17.7871 1.58203 17.9775 1.41797 18.1357C1.25977 18.2939 1.06934 18.373 0.84668 18.373ZM1.69922 8.56445C1.76953 8.43555 1.97168 8.30371 2.30566 8.16895C2.63965 8.02832 3.1084 7.95801 3.71191 7.95801C3.94043 7.95801 4.13086 7.9668 4.2832 7.98438C4.43555 7.99609 4.59668 8.01074 4.7666 8.02832V10.8057C5.3584 10.8584 5.91504 10.9521 6.43652 11.0869C6.95801 11.2158 7.46777 11.3535 7.96582 11.5V8.79297C8.3291 8.91016 8.68066 9.0127 9.02051 9.10059C9.36621 9.18848 9.71484 9.26758 10.0664 9.33789C10.418 9.4082 10.7812 9.46387 11.1562 9.50488V12.2822C11.332 12.3057 11.502 12.3232 11.666 12.335C11.8359 12.3467 12.0088 12.3525 12.1846 12.3525C12.7822 12.3525 13.248 12.2852 13.582 12.1504C13.9219 12.0156 14.127 11.8838 14.1973 11.7549V9.31152C13.9395 9.38184 13.6406 9.44043 13.3008 9.4873C12.9609 9.53418 12.5742 9.55762 12.1406 9.55762C11.9824 9.55762 11.8213 9.55469 11.6572 9.54883C11.499 9.53711 11.332 9.52246 11.1562 9.50488V6.68359C11.332 6.69531 11.4961 6.70703 11.6484 6.71875C11.8066 6.73047 11.9531 6.73633 12.0879 6.73633C12.5566 6.73633 12.9727 6.70996 13.3359 6.65723C13.7051 6.59863 13.9922 6.54004 14.1973 6.48145V3.94141C13.9336 4.01172 13.623 4.07031 13.2656 4.11719C12.9082 4.1582 12.5156 4.17871 12.0879 4.17871C11.9238 4.17871 11.7656 4.17578 11.6133 4.16992C11.4609 4.1582 11.3086 4.14648 11.1562 4.13477V6.68359C10.6113 6.63086 10.0723 6.54297 9.53906 6.41992C9.01172 6.29102 8.4873 6.1416 7.96582 5.97168V3.42285C7.43848 3.27051 6.91406 3.12109 6.39258 2.97461C5.87695 2.82812 5.33496 2.72266 4.7666 2.6582V5.20703C4.59668 5.18359 4.41211 5.16602 4.21289 5.1543C4.01367 5.14258 3.84668 5.13672 3.71191 5.13672C3.1084 5.13672 2.63965 5.20703 2.30566 5.34766C1.97168 5.48242 1.76953 5.61426 1.69922 5.74316V8.56445ZM4.7666 8.02832V5.20703C5.3584 5.27148 5.90625 5.37695 6.41016 5.52344C6.91406 5.66406 7.43262 5.81348 7.96582 5.97168V8.79297C7.39746 8.62891 6.87012 8.47949 6.38379 8.34473C5.89746 8.20996 5.3584 8.10449 4.7666 8.02832Z" fill="#E9C818"/>
</svg>
