<svg width="35" height="17" viewBox="0 0 35 17" fill="none" xmlns="http://www.w3.org/2000/svg">
<path d="M11.6729 16.8633C10.1787 16.8633 9.43164 16.3594 9.43164 15.3516C9.43164 14.7539 9.61035 14.127 9.96777 13.4707C10.3311 12.8145 10.8496 12.2021 11.5234 11.6338C12.2031 11.0654 13.0176 10.6055 13.9668 10.2539C14.916 9.89648 15.9795 9.71777 17.1572 9.71777C18.335 9.71777 19.3984 9.89648 20.3477 10.2539C21.3027 10.6055 22.1172 11.0654 22.791 11.6338C23.4648 12.2021 23.9805 12.8145 24.3379 13.4707C24.7012 14.127 24.8828 14.7539 24.8828 15.3516C24.8828 16.3594 24.1328 16.8633 22.6328 16.8633H11.6729ZM11.3828 15.3428H22.9229C23.0283 15.3428 23.1016 15.3252 23.1426 15.29C23.1895 15.2549 23.2129 15.1963 23.2129 15.1143C23.2129 14.7744 23.0811 14.3877 22.8174 13.9541C22.5537 13.5146 22.1611 13.0898 21.6396 12.6797C21.124 12.2637 20.4883 11.9209 19.7324 11.6514C18.9824 11.376 18.124 11.2383 17.1572 11.2383C16.1846 11.2383 15.3232 11.376 14.5732 11.6514C13.8232 11.9209 13.1904 12.2637 12.6748 12.6797C12.1592 13.0898 11.7666 13.5146 11.4971 13.9541C11.2334 14.3877 11.1016 14.7744 11.1016 15.1143C11.1016 15.1963 11.1221 15.2549 11.1631 15.29C11.21 15.3252 11.2832 15.3428 11.3828 15.3428ZM17.1572 8.68945C16.4541 8.68945 15.8096 8.50195 15.2236 8.12695C14.6436 7.75195 14.1807 7.25098 13.835 6.62402C13.4893 5.99121 13.3164 5.29395 13.3164 4.53223C13.3164 3.78223 13.4893 3.09961 13.835 2.48438C14.1807 1.86328 14.6436 1.36816 15.2236 0.999023C15.8096 0.629883 16.4541 0.445312 17.1572 0.445312C17.8721 0.445312 18.5195 0.626953 19.0996 0.990234C19.6855 1.35352 20.1484 1.84277 20.4883 2.45801C20.834 3.07324 21.0068 3.75879 21.0068 4.51465C21.0068 5.28223 20.834 5.98242 20.4883 6.61523C20.1426 7.24805 19.6768 7.75195 19.0908 8.12695C18.5107 8.50195 17.8662 8.68945 17.1572 8.68945ZM17.1572 7.16016C17.5732 7.16016 17.9512 7.04297 18.291 6.80859C18.6309 6.57422 18.9033 6.25781 19.1084 5.85938C19.3135 5.45508 19.416 5.00684 19.416 4.51465C19.416 4.03418 19.3135 3.60059 19.1084 3.21387C18.9033 2.82715 18.6309 2.52246 18.291 2.2998C17.9512 2.07715 17.5732 1.96582 17.1572 1.96582C16.7529 1.96582 16.3779 2.08008 16.0322 2.30859C15.6924 2.53125 15.4199 2.83887 15.2148 3.23145C15.0098 3.61816 14.9102 4.05176 14.916 4.53223C14.916 5.02441 15.0186 5.46973 15.2236 5.86816C15.4287 6.2666 15.7012 6.58301 16.041 6.81738C16.3867 7.0459 16.7588 7.16016 17.1572 7.16016ZM2.13672 16.8633C1.50977 16.8633 1.03809 16.7314 0.72168 16.4678C0.405273 16.2041 0.24707 15.8086 0.24707 15.2812C0.24707 14.5547 0.419922 13.8574 0.765625 13.1895C1.11719 12.5156 1.60059 11.918 2.21582 11.3965C2.83105 10.875 3.5459 10.4648 4.36035 10.166C5.1748 9.86133 6.04492 9.70898 6.9707 9.70898C7.42773 9.70898 7.88184 9.75 8.33301 9.83203C8.78418 9.9082 9.2207 10.0254 9.64258 10.1836C10.0703 10.3418 10.4717 10.5352 10.8467 10.7637C10.6064 10.9219 10.3926 11.0947 10.2051 11.2822C10.0176 11.4639 9.85352 11.6602 9.71289 11.8711C9.45508 11.7246 9.17676 11.6045 8.87793 11.5107C8.5791 11.4111 8.26855 11.335 7.94629 11.2822C7.62402 11.2236 7.29883 11.1943 6.9707 11.1943C6.27344 11.1943 5.61133 11.3057 4.98438 11.5283C4.36328 11.7451 3.8125 12.041 3.33203 12.416C2.85742 12.7852 2.48242 13.207 2.20703 13.6816C1.9375 14.1504 1.80273 14.6367 1.80273 15.1406C1.80273 15.2227 1.82031 15.2812 1.85547 15.3164C1.89648 15.3516 1.96094 15.3691 2.04883 15.3691H8.22754C8.19824 15.6621 8.25391 15.9492 8.39453 16.2305C8.53516 16.5176 8.72559 16.7285 8.96582 16.8633H2.13672ZM6.97949 8.78613C6.36426 8.78613 5.80176 8.62207 5.29199 8.29395C4.78809 7.96582 4.38379 7.52637 4.0791 6.97559C3.78027 6.41895 3.63086 5.80371 3.63086 5.12988C3.625 4.47363 3.77148 3.87598 4.07031 3.33691C4.375 2.79199 4.78223 2.3584 5.29199 2.03613C5.80176 1.70801 6.36426 1.54395 6.97949 1.54395C7.59473 1.54395 8.1543 1.70508 8.6582 2.02734C9.16797 2.34961 9.57227 2.78027 9.87109 3.31934C10.1758 3.8584 10.3281 4.45898 10.3281 5.12109C10.3281 5.78906 10.1758 6.4043 9.87109 6.9668C9.56641 7.52344 9.16211 7.96582 8.6582 8.29395C8.1543 8.62207 7.59473 8.78613 6.97949 8.78613ZM6.97949 7.2832C7.31348 7.2832 7.62109 7.18652 7.90234 6.99316C8.18359 6.7998 8.40918 6.54199 8.5791 6.21973C8.74902 5.8916 8.83398 5.52539 8.83398 5.12109C8.83398 4.72852 8.74902 4.37695 8.5791 4.06641C8.41504 3.75 8.19238 3.50098 7.91113 3.31934C7.62988 3.1377 7.31934 3.04688 6.97949 3.04688C6.63965 3.04688 6.3291 3.14063 6.04785 3.32812C5.7666 3.50977 5.54102 3.75879 5.37109 4.0752C5.20703 4.3916 5.12793 4.74316 5.13379 5.12988C5.13379 5.52832 5.21582 5.8916 5.37988 6.21973C5.5498 6.54785 5.77539 6.80859 6.05664 7.00195C6.33789 7.18945 6.64551 7.2832 6.97949 7.2832ZM32.1953 16.8633H25.3662C25.6006 16.7285 25.7881 16.5176 25.9287 16.2305C26.0693 15.9492 26.125 15.6621 26.0957 15.3691H32.2832C32.3711 15.3691 32.4326 15.3516 32.4678 15.3164C32.5029 15.2812 32.5205 15.2227 32.5205 15.1406C32.5205 14.6367 32.3828 14.1504 32.1074 13.6816C31.8379 13.207 31.4629 12.7852 30.9824 12.416C30.5078 12.041 29.96 11.7451 29.3389 11.5283C28.7178 11.3057 28.0557 11.1943 27.3525 11.1943C27.0244 11.1943 26.6992 11.2236 26.377 11.2822C26.0547 11.335 25.7441 11.4111 25.4453 11.5107C25.1465 11.6045 24.8682 11.7246 24.6104 11.8711C24.4697 11.6602 24.3057 11.4639 24.1182 11.2822C23.9307 11.0947 23.7197 10.9219 23.4854 10.7637C23.8545 10.5352 24.25 10.3418 24.6719 10.1836C25.0996 10.0254 25.5391 9.9082 25.9902 9.83203C26.4414 9.75 26.8955 9.70898 27.3525 9.70898C28.2842 9.70898 29.1543 9.86133 29.9629 10.166C30.7773 10.4648 31.4922 10.875 32.1074 11.3965C32.7227 11.918 33.2031 12.5156 33.5488 13.1895C33.9004 13.8574 34.0762 14.5547 34.0762 15.2812C34.0762 15.8086 33.918 16.2041 33.6016 16.4678C33.291 16.7314 32.8223 16.8633 32.1953 16.8633ZM27.3438 8.78613C26.7344 8.78613 26.1748 8.62207 25.665 8.29395C25.1611 7.96582 24.7568 7.52344 24.4521 6.9668C24.1533 6.4043 24.0039 5.78906 24.0039 5.12109C24.0039 4.45898 24.1533 3.8584 24.4521 3.31934C24.751 2.78027 25.1523 2.34961 25.6562 2.02734C26.166 1.70508 26.7285 1.54395 27.3438 1.54395C27.959 1.54395 28.5215 1.70801 29.0312 2.03613C29.541 2.3584 29.9453 2.79199 30.2441 3.33691C30.5488 3.87598 30.6982 4.47363 30.6924 5.12988C30.6924 5.80371 30.54 6.41895 30.2354 6.97559C29.9365 7.52637 29.5322 7.96582 29.0225 8.29395C28.5186 8.62207 27.959 8.78613 27.3438 8.78613ZM27.3438 7.2832C27.6777 7.2832 27.9854 7.18945 28.2666 7.00195C28.5479 6.80859 28.7734 6.54785 28.9434 6.21973C29.1133 5.8916 29.1982 5.52832 29.1982 5.12988C29.1982 4.74316 29.1133 4.3916 28.9434 4.0752C28.7793 3.75879 28.5566 3.50977 28.2754 3.32812C27.9941 3.14063 27.6836 3.04688 27.3438 3.04688C27.0039 3.04688 26.6934 3.1377 26.4121 3.31934C26.1367 3.50098 25.9141 3.75 25.7441 4.06641C25.5742 4.37695 25.4893 4.72852 25.4893 5.12109C25.4893 5.52539 25.5742 5.8916 25.7441 6.21973C25.9141 6.54199 26.1396 6.7998 26.4209 6.99316C26.708 7.18652 27.0156 7.2832 27.3438 7.2832Z" fill="#E9C818"/>
</svg>
