<svg width="40" height="24" viewBox="0 0 40 24" fill="none" xmlns="http://www.w3.org/2000/svg">
<path d="M25.9834 21.375C26.1624 21.6901 26.2018 22.0303 26.1016 22.3955C26.0085 22.7607 25.8044 23.0365 25.4893 23.2227C25.167 23.416 24.8268 23.459 24.4688 23.3516C24.1107 23.2513 23.835 23.04 23.6416 22.7178L17.4648 12.0078C17.2715 12.0938 17.0387 12.1904 16.7666 12.2979C16.5016 12.4053 16.2223 12.5449 15.9287 12.7168C15.3415 13.0605 14.8115 13.4544 14.3389 13.8984C13.8734 14.3424 13.4222 14.8079 12.9854 15.2949C12.5485 15.7747 12.083 16.2474 11.5889 16.7129C11.1019 17.1712 10.5397 17.583 9.90234 17.9482C9.45117 18.2132 9.00358 18.4316 8.55957 18.6035C8.11556 18.7754 7.71094 18.8792 7.3457 18.915C6.90885 18.9508 6.51139 18.8936 6.15332 18.7432C5.79525 18.5928 5.49447 18.3063 5.25098 17.8838L0.964844 10.4287C0.721354 10.0133 0.671224 9.6123 0.814453 9.22559C0.957682 8.83171 1.22982 8.5166 1.63086 8.28027C1.88867 8.13704 2.23958 7.98665 2.68359 7.8291C3.1276 7.67155 3.60384 7.44238 4.1123 7.1416C4.70671 6.80501 5.23665 6.41471 5.70215 5.9707C6.16764 5.51953 6.61882 5.05404 7.05566 4.57422C7.49251 4.0944 7.95443 3.62533 8.44141 3.16699C8.93555 2.7015 9.5013 2.28255 10.1387 1.91016C10.597 1.65234 11.0482 1.4375 11.4922 1.26562C11.9362 1.09375 12.3408 0.989909 12.7061 0.954102C13.1357 0.918294 13.5296 0.979167 13.8877 1.13672C14.2458 1.28711 14.5465 1.57715 14.79 2.00684L25.9834 21.375ZM21.1064 9.9668L25.7148 2.00684C25.9583 1.57715 26.2555 1.28711 26.6064 1.13672C26.9645 0.979167 27.362 0.918294 27.7988 0.954102C28.1641 0.989909 28.5687 1.09375 29.0127 1.26562C29.4567 1.4375 29.9043 1.65234 30.3555 1.91016C30.9928 2.28255 31.555 2.7015 32.042 3.16699C32.5361 3.62533 33.0016 4.0944 33.4385 4.57422C33.8753 5.05404 34.3265 5.51953 34.792 5.9707C35.2575 6.41471 35.7874 6.80501 36.3818 7.1416C36.8975 7.44238 37.3773 7.67155 37.8213 7.8291C38.2653 7.98665 38.6126 8.13704 38.8633 8.28027C39.2715 8.5166 39.5436 8.83171 39.6797 9.22559C39.8229 9.6123 39.7764 10.0133 39.54 10.4287L35.2432 17.8838C34.9997 18.3063 34.6989 18.5928 34.3408 18.7432C33.9827 18.8936 33.5853 18.9508 33.1484 18.915C32.7832 18.8792 32.3786 18.7754 31.9346 18.6035C31.4977 18.4316 31.0501 18.2132 30.5918 17.9482C29.9544 17.583 29.3887 17.1712 28.8945 16.7129C28.4076 16.2474 27.9456 15.7747 27.5088 15.2949C27.0719 14.8079 26.6208 14.3424 26.1553 13.8984C25.6898 13.4544 25.1634 13.0605 24.5762 12.7168C24.2754 12.5449 23.9925 12.4053 23.7275 12.2979C23.4626 12.1904 23.2298 12.0938 23.0293 12.0078L22.6641 12.6631L21.1064 9.9668ZM24.415 9.63379C24.6514 9.71973 24.9056 9.83431 25.1777 9.97754C25.4499 10.1208 25.6969 10.2568 25.9189 10.3857C26.6279 10.7939 27.2331 11.2344 27.7344 11.707C28.2428 12.1725 28.7083 12.6452 29.1309 13.125C29.5605 13.6048 29.9938 14.0596 30.4307 14.4893C30.8747 14.9189 31.3867 15.2949 31.9668 15.6172C32.0384 15.6602 32.1351 15.7139 32.2568 15.7783C32.3857 15.8428 32.529 15.9072 32.6865 15.9717C32.8441 16.029 33.0052 16.0648 33.1699 16.0791L36.543 10.2461C36.2923 10.153 36.0345 10.0348 35.7695 9.8916C35.5046 9.74837 35.2611 9.6123 35.0391 9.4834C34.3301 9.0752 33.7214 8.63835 33.2129 8.17285C32.7044 7.7002 32.2389 7.22754 31.8164 6.75488C31.3939 6.27507 30.9606 5.82031 30.5166 5.39062C30.0726 4.96094 29.5641 4.58496 28.9912 4.2627C28.9124 4.21973 28.8086 4.16602 28.6797 4.10156C28.5579 4.02995 28.4183 3.96549 28.2607 3.9082C28.1032 3.84375 27.9456 3.80436 27.7881 3.79004L24.415 9.63379ZM19.3877 18.3242L16.8525 22.7178C16.6663 23.04 16.3942 23.2513 16.0361 23.3516C15.6781 23.459 15.3343 23.416 15.0049 23.2227C14.6898 23.0365 14.4821 22.7607 14.3818 22.3955C14.2887 22.0303 14.3353 21.6901 14.5215 21.375L17.8301 15.6172L19.3877 18.3242Z" fill="#E9C818"/>
</svg>
