<svg width="26" height="21" viewBox="0 0 26 21" fill="none" xmlns="http://www.w3.org/2000/svg">
<path d="M7.14648 14.9082C6.85938 14.9082 6.60742 14.8262 6.39062 14.6621C6.17969 14.498 6.04492 14.2783 5.98633 14.0029L5.78418 13.0625C5.77246 12.9922 5.75781 12.9482 5.74023 12.9307C5.72852 12.9131 5.7168 12.9043 5.70508 12.9043L4.72949 13.4756C4.49512 13.6162 4.24609 13.6748 3.98242 13.6514C3.71875 13.6221 3.49023 13.5049 3.29688 13.2998L2.40039 12.4033C2.18945 12.1982 2.06934 11.9639 2.04004 11.7002C2.0166 11.4307 2.07812 11.1787 2.22461 10.9443L2.85742 9.95117C2.85156 9.96875 2.8457 9.97754 2.83984 9.97754C2.83984 9.97168 2.83691 9.97168 2.83105 9.97754L1.72363 9.70508C1.4541 9.64062 1.2373 9.50293 1.07324 9.29199C0.90918 9.08105 0.827148 8.83203 0.827148 8.54492V7.34961C0.827148 7.0625 0.90918 6.81348 1.07324 6.60254C1.2373 6.38574 1.4541 6.24512 1.72363 6.18066L2.83105 5.91699C2.83691 5.93457 2.83984 5.94043 2.83984 5.93457C2.83984 5.92871 2.83984 5.92285 2.83984 5.91699C2.83984 5.90527 2.84277 5.89941 2.84863 5.89941C2.85449 5.89941 2.85742 5.91406 2.85742 5.94336L2.22461 4.94141C2.07812 4.70703 2.01953 4.45801 2.04883 4.19434C2.07812 3.9248 2.19531 3.6875 2.40039 3.48242L3.29688 2.58594C3.49023 2.38672 3.71875 2.27246 3.98242 2.24316C4.25195 2.21387 4.50391 2.26953 4.73828 2.41016L5.77539 3.02539C5.75195 3.02539 5.74023 3.02246 5.74023 3.0166C5.74609 3.01074 5.74902 3.00781 5.74902 3.00781L5.98633 1.88281C6.05078 1.61328 6.18848 1.39648 6.39941 1.23242C6.61035 1.0625 6.85938 0.977539 7.14648 0.977539H8.43848C8.72559 0.977539 8.97461 1.0625 9.18555 1.23242C9.40234 1.39648 9.54004 1.61328 9.59863 1.88281L9.82715 3.00781C9.81543 3.00781 9.80957 3.01074 9.80957 3.0166C9.81543 3.0166 9.82129 3.01953 9.82715 3.02539C9.83887 3.02539 9.84473 3.02539 9.84473 3.02539C9.84473 3.02539 9.83008 3.02539 9.80078 3.02539L10.8467 2.41016C11.0811 2.26953 11.3301 2.21387 11.5938 2.24316C11.8633 2.27246 12.0947 2.38672 12.2881 2.58594L13.1846 3.48242C13.3896 3.69336 13.5068 3.93066 13.5361 4.19434C13.5654 4.45215 13.5068 4.70117 13.3604 4.94141L12.7275 5.94336C12.7334 5.91992 12.7363 5.91113 12.7363 5.91699C12.7422 5.91699 12.748 5.91699 12.7539 5.91699L13.8525 6.18066C14.1279 6.24512 14.3477 6.38574 14.5117 6.60254C14.6758 6.81348 14.7578 7.0625 14.7578 7.34961V8.54492C14.7578 8.83203 14.6729 9.08105 14.5029 9.29199C14.3389 9.50293 14.1221 9.64062 13.8525 9.70508L12.7539 9.97754C12.748 9.95996 12.7422 9.9541 12.7363 9.95996C12.7363 9.95996 12.7363 9.96582 12.7363 9.97754C12.7363 9.98926 12.7334 9.99512 12.7275 9.99512C12.7275 9.99512 12.7275 9.98047 12.7275 9.95117L13.3604 10.9443C13.5068 11.1787 13.5654 11.4307 13.5361 11.7002C13.5068 11.9639 13.3896 12.1982 13.1846 12.4033L12.2881 13.2998C12.0947 13.5049 11.8633 13.6221 11.5938 13.6514C11.3301 13.6748 11.0811 13.6162 10.8467 13.4756L9.87988 12.9043C9.86816 12.916 9.85352 12.9336 9.83594 12.957C9.82422 12.9805 9.8125 13.0156 9.80078 13.0625L9.59863 14.0029C9.54004 14.2783 9.40234 14.498 9.18555 14.6621C8.97461 14.8262 8.72559 14.9082 8.43848 14.9082H7.14648ZM7.32227 13.5635H8.2627C8.30371 13.5635 8.32715 13.5576 8.33301 13.5459C8.34473 13.5342 8.35645 13.5078 8.36816 13.4668L8.75488 11.8672C8.97754 11.8203 9.18848 11.7529 9.3877 11.665C9.58691 11.5713 9.76562 11.4805 9.92383 11.3926L11.3213 12.2451C11.3564 12.2627 11.3799 12.2715 11.3916 12.2715C11.4092 12.2715 11.4326 12.2568 11.4619 12.2275L12.1211 11.5771C12.1562 11.5537 12.1709 11.5361 12.165 11.5244C12.165 11.5068 12.1562 11.4805 12.1387 11.4453L11.2949 10.0566C11.3477 9.92188 11.4238 9.75488 11.5234 9.55566C11.623 9.35059 11.6992 9.12793 11.752 8.8877L13.3252 8.50977C13.3721 8.50391 13.3984 8.49512 13.4043 8.4834C13.416 8.47168 13.4219 8.44531 13.4219 8.4043V7.48145C13.4219 7.44629 13.416 7.42285 13.4043 7.41113C13.3984 7.39941 13.3721 7.3877 13.3252 7.37598L11.752 6.99805C11.6992 6.75781 11.623 6.53809 11.5234 6.33887C11.4238 6.13965 11.3477 5.96973 11.2949 5.8291L12.1387 4.44922C12.1562 4.4082 12.165 4.38184 12.165 4.37012C12.1709 4.3584 12.1562 4.33789 12.1211 4.30859L11.4619 3.6582C11.4326 3.62891 11.4092 3.61426 11.3916 3.61426C11.3799 3.61426 11.3564 3.62598 11.3213 3.64941L9.92383 4.49316C9.76562 4.41113 9.58691 4.32324 9.3877 4.22949C9.18848 4.13574 8.97754 4.06543 8.75488 4.01855L8.36816 2.42773C8.35645 2.38086 8.34473 2.35156 8.33301 2.33984C8.32715 2.32813 8.30371 2.32227 8.2627 2.32227H7.32227C7.28125 2.32227 7.25488 2.32813 7.24316 2.33984C7.23145 2.35156 7.22266 2.38086 7.2168 2.42773L6.83008 4.01855C6.60742 4.06543 6.39648 4.13574 6.19727 4.22949C5.99805 4.32324 5.81934 4.41113 5.66113 4.49316L4.26367 3.64941C4.22852 3.62598 4.20215 3.61426 4.18457 3.61426C4.16699 3.61426 4.14355 3.62891 4.11426 3.6582L3.45508 4.30859C3.42578 4.33789 3.41113 4.3584 3.41113 4.37012C3.41699 4.38184 3.42871 4.4082 3.44629 4.44922L4.29004 5.8291C4.2373 5.96973 4.16113 6.13965 4.06152 6.33887C3.96191 6.53809 3.88574 6.75781 3.83301 6.99805L2.25098 7.37598C2.20996 7.3877 2.18359 7.39941 2.17188 7.41113C2.16602 7.42285 2.16309 7.44629 2.16309 7.48145V8.4043C2.16309 8.44531 2.16602 8.47168 2.17188 8.4834C2.18359 8.49512 2.20996 8.50391 2.25098 8.50977L3.83301 8.8877C3.88574 9.12793 3.96191 9.35059 4.06152 9.55566C4.16113 9.75488 4.2373 9.92188 4.29004 10.0566L3.44629 11.4453C3.42871 11.4805 3.41699 11.5068 3.41113 11.5244C3.41113 11.5361 3.42578 11.5537 3.45508 11.5771L4.11426 12.2275C4.14355 12.2568 4.16699 12.2715 4.18457 12.2715C4.20215 12.2715 4.22852 12.2627 4.26367 12.2451L5.66113 11.3926C5.81934 11.4805 5.99805 11.5713 6.19727 11.665C6.39648 11.7529 6.60742 11.8203 6.83008 11.8672L7.2168 13.4668C7.22266 13.5078 7.23145 13.5342 7.24316 13.5459C7.25488 13.5576 7.28125 13.5635 7.32227 13.5635ZM18.8008 20.3223C18.5371 20.3223 18.3027 20.249 18.0977 20.1025C17.8984 19.9619 17.7783 19.7715 17.7373 19.5312L17.5703 18.6523C17.582 18.6523 17.5879 18.6494 17.5879 18.6436C17.5879 18.6436 17.582 18.6406 17.5703 18.6348C17.5586 18.6348 17.5527 18.6318 17.5527 18.626C17.5527 18.626 17.5674 18.626 17.5967 18.626L16.8057 19.1182C16.5947 19.2529 16.3691 19.3027 16.1289 19.2676C15.8887 19.2383 15.6777 19.1299 15.4961 18.9424L14.7754 18.2305C14.5938 18.0371 14.4854 17.8203 14.4502 17.5801C14.4209 17.3398 14.4766 17.1113 14.6172 16.8945L15.1182 16.1387C15.1123 16.1562 15.1064 16.165 15.1006 16.165C15.1006 16.165 15.0977 16.165 15.0918 16.165L14.2305 15.9893C13.9902 15.9365 13.7969 15.8135 13.6504 15.6201C13.5039 15.4268 13.4307 15.1982 13.4307 14.9346V13.9414C13.4307 13.6836 13.5039 13.458 13.6504 13.2646C13.7969 13.0654 13.9902 12.9424 14.2305 12.8955L15.0918 12.7197C15.0918 12.7314 15.0918 12.7344 15.0918 12.7285C15.0977 12.7227 15.1006 12.7168 15.1006 12.7109C15.1064 12.7051 15.1094 12.7021 15.1094 12.7021C15.1152 12.7021 15.1182 12.7139 15.1182 12.7373L14.6172 11.9814C14.4766 11.7646 14.4209 11.5361 14.4502 11.2959C14.4854 11.0557 14.5938 10.8418 14.7754 10.6543L15.4961 9.93359C15.6777 9.74609 15.8887 9.6377 16.1289 9.6084C16.3691 9.5791 16.5947 9.62891 16.8057 9.75781L17.5967 10.25C17.5791 10.2441 17.5703 10.2412 17.5703 10.2412C17.5762 10.2354 17.5762 10.2324 17.5703 10.2324L17.7373 9.35352C17.7783 9.10742 17.8984 8.91406 18.0977 8.77344C18.3027 8.62695 18.5371 8.55371 18.8008 8.55371H19.8115C20.0752 8.55371 20.3066 8.62695 20.5059 8.77344C20.7051 8.91406 20.8252 9.10742 20.8662 9.35352L21.0332 10.2324C21.0215 10.2324 21.0186 10.2324 21.0244 10.2324C21.0303 10.2324 21.0361 10.2354 21.042 10.2412C21.0479 10.2412 21.0508 10.2441 21.0508 10.25C21.0508 10.25 21.0361 10.25 21.0068 10.25L21.7979 9.75781C22.0146 9.62891 22.2432 9.5791 22.4834 9.6084C22.7236 9.6377 22.9346 9.74609 23.1162 9.93359L23.8369 10.6543C24.0186 10.8418 24.124 11.0557 24.1533 11.2959C24.1826 11.5361 24.1299 11.7646 23.9951 11.9814L23.4941 12.7373C23.4941 12.7197 23.4971 12.7139 23.5029 12.7197C23.5088 12.7197 23.5146 12.7197 23.5205 12.7197L24.3906 12.8955C24.625 12.9424 24.8125 13.0654 24.9531 13.2646C25.0996 13.458 25.1729 13.6836 25.1729 13.9414V14.9346C25.1729 15.1982 25.0996 15.4268 24.9531 15.6201C24.8125 15.8135 24.625 15.9365 24.3906 15.9893L23.5205 16.165C23.5146 16.1475 23.5088 16.1416 23.5029 16.1475C23.5029 16.1533 23.5 16.1621 23.4941 16.1738C23.4941 16.1797 23.4941 16.1826 23.4941 16.1826C23.4941 16.1826 23.4941 16.168 23.4941 16.1387L23.9951 16.8945C24.1299 17.1113 24.1826 17.3398 24.1533 17.5801C24.124 17.8203 24.0186 18.0371 23.8369 18.2305L23.1162 18.9424C22.9346 19.1299 22.7236 19.2383 22.4834 19.2676C22.2432 19.3027 22.0146 19.2529 21.7979 19.1182L21.0068 18.626C21.0303 18.6318 21.0391 18.6377 21.0332 18.6436C21.0332 18.6494 21.0332 18.6523 21.0332 18.6523L20.8662 19.5312C20.8252 19.7715 20.7051 19.9619 20.5059 20.1025C20.3066 20.249 20.0752 20.3223 19.8115 20.3223H18.8008ZM19.0381 19.0391H19.5654C19.6182 19.0391 19.6533 19.0303 19.6709 19.0127C19.6885 19.001 19.7002 18.9746 19.7061 18.9336L20.0225 17.6416C20.3975 17.5654 20.7461 17.4189 21.0684 17.2021L22.1934 17.9141C22.2285 17.9316 22.2578 17.9375 22.2812 17.9316C22.3105 17.9316 22.3398 17.917 22.3691 17.8877L22.7646 17.4834C22.7939 17.4482 22.8086 17.4189 22.8086 17.3955C22.8145 17.3721 22.8086 17.3457 22.791 17.3164L22.1143 16.2266C22.1436 16.1152 22.208 15.9658 22.3076 15.7783C22.4072 15.585 22.4775 15.377 22.5186 15.1543L23.8018 14.8555C23.8428 14.8496 23.8691 14.8379 23.8809 14.8203C23.8984 14.7969 23.9072 14.7646 23.9072 14.7236V14.1523C23.9072 14.1172 23.8984 14.0908 23.8809 14.0732C23.8691 14.0498 23.8428 14.0352 23.8018 14.0293L22.5186 13.7305C22.4775 13.502 22.4072 13.2939 22.3076 13.1064C22.208 12.9189 22.1436 12.7695 22.1143 12.6582L22.791 11.5596C22.8086 11.5361 22.8145 11.5127 22.8086 11.4893C22.8086 11.46 22.7939 11.4277 22.7646 11.3926L22.3691 10.9971C22.3398 10.9619 22.3105 10.9443 22.2812 10.9443C22.2578 10.9443 22.2285 10.9531 22.1934 10.9707L21.0684 11.6738C20.7461 11.4629 20.3975 11.3164 20.0225 11.2344L19.7061 9.95117C19.7002 9.91016 19.6885 9.88086 19.6709 9.86328C19.6533 9.8457 19.6182 9.83691 19.5654 9.83691H19.0381C18.9912 9.83691 18.959 9.8457 18.9414 9.86328C18.9297 9.88086 18.915 9.91016 18.8975 9.95117L18.5811 11.2344C18.2119 11.3164 17.8633 11.4629 17.5352 11.6738L16.4102 10.9707C16.3809 10.9531 16.3516 10.9443 16.3223 10.9443C16.2988 10.9443 16.2695 10.9619 16.2344 10.9971L15.8477 11.3926C15.8125 11.4277 15.7949 11.46 15.7949 11.4893C15.7949 11.5127 15.8037 11.5361 15.8213 11.5596L16.498 12.6582C16.4688 12.7695 16.4043 12.9189 16.3047 13.1064C16.2051 13.2939 16.1348 13.502 16.0938 13.7305L14.8105 14.0293C14.7695 14.0352 14.7402 14.0498 14.7227 14.0732C14.7109 14.0908 14.7051 14.1172 14.7051 14.1523V14.7236C14.7051 14.7646 14.7109 14.7969 14.7227 14.8203C14.7402 14.8379 14.7695 14.8496 14.8105 14.8555L16.0938 15.1543C16.1348 15.377 16.2051 15.585 16.3047 15.7783C16.4043 15.9658 16.4688 16.1152 16.498 16.2266L15.8213 17.3164C15.8037 17.3457 15.7949 17.3721 15.7949 17.3955C15.7949 17.4189 15.8125 17.4482 15.8477 17.4834L16.2344 17.8877C16.2695 17.917 16.2988 17.9316 16.3223 17.9316C16.3516 17.9375 16.3809 17.9316 16.4102 17.9141L17.5352 17.2021C17.8633 17.4189 18.2119 17.5654 18.5811 17.6416L18.8975 18.9336C18.915 18.9746 18.9297 19.001 18.9414 19.0127C18.959 19.0303 18.9912 19.0391 19.0381 19.0391ZM7.78809 10.584C7.30762 10.584 6.86523 10.4668 6.46094 10.2324C6.0625 9.99219 5.74316 9.67285 5.50293 9.27441C5.2627 8.87012 5.14258 8.42773 5.14258 7.94727C5.14258 7.46094 5.2627 7.01855 5.50293 6.62012C5.74316 6.21582 6.0625 5.89648 6.46094 5.66211C6.86523 5.42188 7.30762 5.30176 7.78809 5.30176C8.27441 5.30176 8.7168 5.42188 9.11523 5.66211C9.51367 5.89648 9.83301 6.21582 10.0732 6.62012C10.3135 7.01855 10.4336 7.46094 10.4336 7.94727C10.4336 8.42773 10.3135 8.87012 10.0732 9.27441C9.83301 9.67285 9.51367 9.99219 9.11523 10.2324C8.7168 10.4668 8.27441 10.584 7.78809 10.584ZM7.78809 9.23047C8.02832 9.23047 8.24512 9.1748 8.43848 9.06348C8.6377 8.94629 8.79297 8.79102 8.9043 8.59766C9.02148 8.39844 9.08008 8.18164 9.08008 7.94727C9.08008 7.70703 9.02148 7.49023 8.9043 7.29688C8.79297 7.09766 8.6377 6.94238 8.43848 6.83105C8.24512 6.71387 8.02832 6.65527 7.78809 6.65527C7.55371 6.65527 7.33691 6.71387 7.1377 6.83105C6.94434 6.94238 6.78906 7.09766 6.67188 7.29688C6.55469 7.49023 6.49609 7.70703 6.49609 7.94727C6.49609 8.18164 6.55469 8.39844 6.67188 8.59766C6.78906 8.79102 6.94434 8.94629 7.1377 9.06348C7.33691 9.1748 7.55371 9.23047 7.78809 9.23047ZM19.293 16.499C18.918 16.499 18.5723 16.4053 18.2559 16.2178C17.9453 16.0303 17.6992 15.7842 17.5176 15.4795C17.3359 15.1689 17.2451 14.8232 17.2451 14.4424C17.2451 14.0615 17.3359 13.7158 17.5176 13.4053C17.6992 13.0947 17.9453 12.8486 18.2559 12.667C18.5723 12.4795 18.918 12.3857 19.293 12.3857C19.6738 12.3857 20.0195 12.4795 20.3301 12.667C20.6406 12.8486 20.8896 13.0947 21.0771 13.4053C21.2646 13.7158 21.3584 14.0615 21.3584 14.4424C21.3584 14.8232 21.2646 15.1689 21.0771 15.4795C20.8896 15.7842 20.6406 16.0303 20.3301 16.2178C20.0195 16.4053 19.6738 16.499 19.293 16.499ZM19.293 15.3125C19.5391 15.3125 19.7471 15.2275 19.917 15.0576C20.0869 14.8818 20.1719 14.6768 20.1719 14.4424C20.1719 14.2021 20.0869 13.9971 19.917 13.8271C19.7471 13.6572 19.5391 13.5723 19.293 13.5723C19.0586 13.5723 18.8564 13.6572 18.6865 13.8271C18.5166 13.9971 18.4316 14.2021 18.4316 14.4424C18.4316 14.6768 18.5166 14.8818 18.6865 15.0576C18.8564 15.2275 19.0586 15.3125 19.293 15.3125Z" fill="#E9C818"/>
</svg>
