<svg width="46" height="34" viewBox="0 0 46 34" fill="none" xmlns="http://www.w3.org/2000/svg">
<path d="M23 26.626C22.4688 26.626 22.015 26.4434 21.6387 26.0781C21.2734 25.7018 21.0908 25.2536 21.0908 24.7334V16.9307L14.8818 10.6719C14.2399 10.0299 13.8249 9.26628 13.6367 8.38086C13.4596 7.49544 13.5426 6.62663 13.8857 5.77441C14.251 4.94434 14.8044 4.27474 15.5459 3.76562C16.2874 3.25651 17.1175 3.00195 18.0361 3.00195H26.4199C27.4382 3.00195 28.2959 3.35612 28.9932 4.06445C29.7015 4.77279 30.0557 5.63053 30.0557 6.6377V12.498H35.0527C35.5729 12.498 36.0156 12.6862 36.3809 13.0625C36.7572 13.4277 36.9453 13.8704 36.9453 14.3906C36.9453 14.9219 36.7572 15.3757 36.3809 15.752C36.0156 16.1172 35.5729 16.2998 35.0527 16.2998H28.1631C27.6429 16.2998 27.1947 16.1172 26.8184 15.752C26.4421 15.3757 26.2539 14.9219 26.2539 14.3906V10.1406C26.2539 9.93034 26.2041 9.75879 26.1045 9.62598C26.016 9.4821 25.8389 9.41016 25.5732 9.41016H20.1943C20.0615 9.41016 19.9674 9.47103 19.9121 9.59277C19.8568 9.70345 19.8789 9.81413 19.9785 9.9248L24.3779 14.8389C24.721 15.2262 24.8926 15.6579 24.8926 16.1338V24.7334C24.8926 25.2536 24.7044 25.7018 24.3281 26.0781C23.9629 26.4434 23.5202 26.626 23 26.626ZM10.084 33.8477C8.76693 33.8477 7.52734 33.5986 6.36523 33.1006C5.20312 32.6136 4.1849 31.9274 3.31055 31.042C2.4362 30.1676 1.75 29.1494 1.25195 27.9873C0.753906 26.8252 0.504883 25.5856 0.504883 24.2686C0.504883 22.9404 0.753906 21.7008 1.25195 20.5498C1.75 19.3877 2.4362 18.3695 3.31055 17.4951C4.1849 16.6097 5.20312 15.918 6.36523 15.4199C7.52734 14.9219 8.76693 14.6729 10.084 14.6729C11.4121 14.6729 12.6517 14.9219 13.8027 15.4199C14.9648 15.918 15.9831 16.6097 16.8574 17.4951C17.7428 18.3695 18.429 19.3877 18.916 20.5498C19.4141 21.7008 19.6631 22.9404 19.6631 24.2686C19.6631 25.5856 19.4141 26.8252 18.916 27.9873C18.429 29.1494 17.7428 30.1676 16.8574 31.042C15.9831 31.9274 14.9648 32.6136 13.8027 33.1006C12.6517 33.5986 11.4121 33.8477 10.084 33.8477ZM10.084 30.8594C11.3125 30.8594 12.4248 30.5605 13.4209 29.9629C14.417 29.3763 15.2083 28.585 15.7949 27.5889C16.3926 26.5928 16.6914 25.486 16.6914 24.2686C16.6914 23.04 16.3926 21.9277 15.7949 20.9316C15.2083 19.9355 14.417 19.1442 13.4209 18.5576C12.4248 17.96 11.3125 17.6611 10.084 17.6611C8.86654 17.6611 7.75977 17.96 6.76367 18.5576C5.76758 19.1442 4.9707 19.9355 4.37305 20.9316C3.78646 21.9277 3.49316 23.04 3.49316 24.2686C3.49316 25.486 3.78646 26.5928 4.37305 27.5889C4.9707 28.585 5.76758 29.3763 6.76367 29.9629C7.75977 30.5605 8.86654 30.8594 10.084 30.8594ZM40.2988 19.3711C39.8561 18.9837 39.6348 18.5853 39.6348 18.1758C39.6348 17.7552 39.762 17.4066 40.0166 17.1299C40.2712 16.8532 40.5977 16.6927 40.9961 16.6484C41.4056 16.5931 41.804 16.7314 42.1914 17.0635C43.1986 17.9378 43.9954 19.0003 44.582 20.251C45.1797 21.4906 45.4785 22.8298 45.4785 24.2686C45.4785 25.5856 45.2295 26.8252 44.7314 27.9873C44.2334 29.1494 43.5472 30.1676 42.6729 31.042C41.7985 31.9274 40.7803 32.6136 39.6182 33.1006C38.4561 33.5986 37.2165 33.8477 35.8994 33.8477C34.5713 33.8477 33.3262 33.5986 32.1641 33.1006C31.013 32.6136 29.9948 31.9274 29.1094 31.042C28.235 30.1676 27.5488 29.1494 27.0508 27.9873C26.5638 26.8252 26.3203 25.5856 26.3203 24.2686C26.3203 23.5824 26.3923 22.9128 26.5361 22.2598C26.68 21.5957 26.8848 20.9593 27.1504 20.3506C27.3496 19.9079 27.6318 19.6201 27.9971 19.4873C28.3623 19.3545 28.7165 19.3545 29.0596 19.4873C29.4137 19.609 29.6849 19.8636 29.873 20.251C30.0723 20.6383 30.0557 21.1087 29.8232 21.6621C29.4691 22.4811 29.292 23.3499 29.292 24.2686C29.292 25.486 29.5853 26.5928 30.1719 27.5889C30.7695 28.585 31.5664 29.3763 32.5625 29.9629C33.5586 30.5605 34.6709 30.8594 35.8994 30.8594C37.1169 30.8594 38.2236 30.5605 39.2197 29.9629C40.2158 29.3763 41.0072 28.585 41.5938 27.5889C42.1914 26.5928 42.4902 25.486 42.4902 24.2686C42.4902 23.2835 42.291 22.3704 41.8926 21.5293C41.4941 20.6882 40.9629 19.9688 40.2988 19.3711ZM35.4346 7.89941C34.7152 7.89941 34.0566 7.72233 33.459 7.36816C32.8724 7.014 32.402 6.54362 32.0479 5.95703C31.6937 5.35938 31.5166 4.70085 31.5166 3.98145C31.5166 3.26204 31.6937 2.60905 32.0479 2.02246C32.402 1.43587 32.8724 0.965495 33.459 0.611328C34.0566 0.257161 34.7152 0.0800781 35.4346 0.0800781C36.154 0.0800781 36.807 0.257161 37.3936 0.611328C37.9801 0.965495 38.4505 1.43587 38.8047 2.02246C39.1589 2.60905 39.3359 3.26204 39.3359 3.98145C39.3359 4.70085 39.1589 5.35938 38.8047 5.95703C38.4505 6.54362 37.9801 7.014 37.3936 7.36816C36.807 7.72233 36.154 7.89941 35.4346 7.89941Z" fill="#E9C818"/>
</svg>
