<svg width="66" height="32" viewBox="0 0 66 32" fill="none" xmlns="http://www.w3.org/2000/svg">
<path d="M22.7734 31.7354C19.7409 31.7354 18.2246 30.6729 18.2246 28.5479C18.2246 27.3304 18.5788 26.0964 19.2871 24.8457C20.0065 23.5951 21.0192 22.4495 22.3252 21.4092C23.6423 20.3577 25.2028 19.5111 27.0068 18.8691C28.8109 18.2272 30.8031 17.9062 32.9834 17.9062C35.1748 17.9062 37.1725 18.2272 38.9766 18.8691C40.7806 19.5111 42.3356 20.3577 43.6416 21.4092C44.9476 22.4495 45.9548 23.5951 46.6631 24.8457C47.3825 26.0964 47.7422 27.3304 47.7422 28.5479C47.7422 30.6729 46.2259 31.7354 43.1934 31.7354H22.7734ZM22.6572 28.2324H43.3096C43.4756 28.2324 43.5918 28.1992 43.6582 28.1328C43.7246 28.0775 43.7578 27.9889 43.7578 27.8672C43.7578 27.3027 43.5143 26.6608 43.0273 25.9414C42.5514 25.2109 41.8542 24.5026 40.9355 23.8164C40.0169 23.1191 38.888 22.5492 37.5488 22.1064C36.2096 21.6527 34.6878 21.4258 32.9834 21.4258C31.279 21.4258 29.7572 21.6527 28.418 22.1064C27.0898 22.5492 25.9609 23.1191 25.0312 23.8164C24.1126 24.5026 23.4154 25.2109 22.9395 25.9414C22.4635 26.6608 22.2256 27.3027 22.2256 27.8672C22.2256 27.9889 22.2533 28.0775 22.3086 28.1328C22.375 28.1992 22.4912 28.2324 22.6572 28.2324ZM32.9834 16.1797C31.611 16.1797 30.3659 15.82 29.248 15.1006C28.1302 14.3812 27.2337 13.4183 26.5586 12.2119C25.8945 10.9945 25.5625 9.64421 25.5625 8.16113C25.5625 6.72233 25.8945 5.40527 26.5586 4.20996C27.2337 3.01465 28.1302 2.06283 29.248 1.35449C30.377 0.635091 31.6221 0.275391 32.9834 0.275391C34.3558 0.275391 35.6009 0.629557 36.7188 1.33789C37.8477 2.04622 38.7441 2.99805 39.4082 4.19336C40.0833 5.3776 40.4209 6.69466 40.4209 8.14453C40.4209 9.6276 40.0889 10.9779 39.4248 12.1953C38.7607 13.4128 37.8643 14.3812 36.7354 15.1006C35.6175 15.82 34.3669 16.1797 32.9834 16.1797ZM32.9834 12.6602C33.6917 12.6602 34.3337 12.4609 34.9092 12.0625C35.4847 11.6641 35.944 11.1217 36.2871 10.4355C36.6413 9.74935 36.8184 8.98568 36.8184 8.14453C36.8184 7.32552 36.6413 6.58952 36.2871 5.93652C35.944 5.27246 35.4792 4.74674 34.8926 4.35938C34.3171 3.97201 33.6807 3.77832 32.9834 3.77832C32.2972 3.77832 31.6608 3.97201 31.0742 4.35938C30.4987 4.74674 30.0339 5.27246 29.6797 5.93652C29.3366 6.60059 29.165 7.34212 29.165 8.16113C29.165 9.01335 29.3421 9.78255 29.6963 10.4688C30.0505 11.1439 30.5153 11.6807 31.0908 12.0791C31.6663 12.4665 32.2972 12.6602 32.9834 12.6602ZM4.57812 31.752C3.2832 31.752 2.30924 31.4642 1.65625 30.8887C1.00326 30.3132 0.676758 29.4775 0.676758 28.3818C0.676758 27.0094 1.00879 25.6924 1.67285 24.4307C2.34798 23.1689 3.27214 22.0511 4.44531 21.0771C5.62956 20.0921 6.99642 19.3174 8.5459 18.7529C10.1064 18.1774 11.7777 17.8896 13.5596 17.8896C14.3343 17.8896 15.1367 17.9616 15.9668 18.1055C16.7969 18.2493 17.6104 18.4541 18.4072 18.7197C19.2152 18.9854 19.9567 19.3063 20.6318 19.6826C20.0452 20.0479 19.5417 20.4518 19.1211 20.8945C18.7005 21.3262 18.3408 21.8021 18.042 22.3223C17.6546 22.123 17.2064 21.9515 16.6973 21.8076C16.1882 21.6637 15.6569 21.5475 15.1035 21.459C14.5612 21.3704 14.0465 21.3262 13.5596 21.3262C12.2979 21.3262 11.1136 21.5143 10.0068 21.8906C8.91113 22.2669 7.94271 22.7705 7.10156 23.4014C6.27148 24.0322 5.61849 24.7406 5.14258 25.5264C4.67773 26.3122 4.44531 27.1146 4.44531 27.9336C4.44531 28.0443 4.46745 28.1328 4.51172 28.1992C4.56706 28.2656 4.66667 28.2988 4.81055 28.2988H15.6846C15.6182 28.9297 15.7233 29.5771 16 30.2412C16.2878 30.9163 16.7028 31.4199 17.2451 31.752H4.57812ZM13.5596 16.4121C12.3643 16.4121 11.2741 16.0967 10.2891 15.4658C9.3151 14.835 8.53483 13.9883 7.94824 12.9258C7.36165 11.8633 7.06836 10.679 7.06836 9.37305C7.05729 8.10026 7.34505 6.93815 7.93164 5.88672C8.51823 4.83529 9.30404 3.99967 10.2891 3.37988C11.2852 2.74902 12.3753 2.43359 13.5596 2.43359C14.7549 2.43359 15.8395 2.74902 16.8135 3.37988C17.7985 3.99967 18.5843 4.83529 19.1709 5.88672C19.7575 6.92708 20.0508 8.08366 20.0508 9.35645C20.0508 10.6514 19.7575 11.8356 19.1709 12.9092C18.5954 13.9827 17.8151 14.835 16.8301 15.4658C15.8451 16.0967 14.7549 16.4121 13.5596 16.4121ZM13.5596 12.959C14.113 12.959 14.6221 12.804 15.0869 12.4941C15.5518 12.1732 15.9225 11.7415 16.1992 11.1992C16.4759 10.6458 16.6143 10.0316 16.6143 9.35645C16.6143 8.70345 16.4704 8.11686 16.1826 7.59668C15.9059 7.0765 15.5352 6.66146 15.0703 6.35156C14.6165 6.04167 14.113 5.88672 13.5596 5.88672C13.0173 5.88672 12.5137 6.04167 12.0488 6.35156C11.584 6.66146 11.2132 7.08203 10.9365 7.61328C10.6598 8.14453 10.5215 8.73112 10.5215 9.37305C10.5215 10.0482 10.6598 10.6569 10.9365 11.1992C11.2132 11.7415 11.584 12.1732 12.0488 12.4941C12.5137 12.804 13.0173 12.959 13.5596 12.959ZM61.4219 31.752H48.7383C49.2806 31.4199 49.6901 30.9163 49.9668 30.2412C50.2546 29.5771 50.3708 28.9297 50.3154 28.2988H61.1729C61.3167 28.2988 61.4163 28.2656 61.4717 28.1992C61.527 28.1328 61.5547 28.0443 61.5547 27.9336C61.5547 27.1146 61.3167 26.3122 60.8408 25.5264C60.376 24.7406 59.723 24.0322 58.8818 23.4014C58.0407 22.7705 57.0667 22.2669 55.96 21.8906C54.8643 21.5143 53.6911 21.3262 52.4404 21.3262C51.9424 21.3262 51.4222 21.3704 50.8799 21.459C50.3376 21.5475 49.8118 21.6637 49.3027 21.8076C48.7936 21.9515 48.3454 22.123 47.958 22.3223C47.6592 21.8021 47.2939 21.3262 46.8623 20.8945C46.4417 20.4518 45.9382 20.0479 45.3516 19.6826C46.0378 19.3063 46.7793 18.9854 47.5762 18.7197C48.373 18.4541 49.1865 18.2493 50.0166 18.1055C50.8467 17.9616 51.6546 17.8896 52.4404 17.8896C54.2223 17.8896 55.888 18.1774 57.4375 18.7529C58.998 19.3174 60.3649 20.0921 61.5381 21.0771C62.7223 22.0511 63.6465 23.1689 64.3105 24.4307C64.9746 25.6924 65.3066 27.0094 65.3066 28.3818C65.3066 29.4775 64.9801 30.3132 64.3271 30.8887C63.6852 31.4642 62.7168 31.752 61.4219 31.752ZM52.4238 16.4121C51.2285 16.4121 50.1383 16.0967 49.1533 15.4658C48.1794 14.835 47.3991 13.9827 46.8125 12.9092C46.2259 11.8356 45.9326 10.6514 45.9326 9.35645C45.9326 8.08366 46.2259 6.92708 46.8125 5.88672C47.3991 4.83529 48.1849 3.99967 49.1699 3.37988C50.1549 2.74902 51.2396 2.43359 52.4238 2.43359C53.6191 2.43359 54.7093 2.74902 55.6943 3.37988C56.6794 3.99967 57.4652 4.83529 58.0518 5.88672C58.6383 6.93815 58.9316 8.10026 58.9316 9.37305C58.9206 10.679 58.6217 11.8633 58.0352 12.9258C57.4596 13.9883 56.6794 14.835 55.6943 15.4658C54.7204 16.0967 53.6302 16.4121 52.4238 16.4121ZM52.4238 12.959C52.9772 12.959 53.4808 12.804 53.9346 12.4941C54.3994 12.1732 54.7702 11.7415 55.0469 11.1992C55.3346 10.6569 55.4785 10.0482 55.4785 9.37305C55.4785 8.73112 55.3402 8.14453 55.0635 7.61328C54.7868 7.08203 54.416 6.66146 53.9512 6.35156C53.4863 6.04167 52.9772 5.88672 52.4238 5.88672C51.8815 5.88672 51.3779 6.04167 50.9131 6.35156C50.4482 6.66146 50.0775 7.0765 49.8008 7.59668C49.5241 8.11686 49.3857 8.70345 49.3857 9.35645C49.3857 10.0316 49.5241 10.6458 49.8008 11.1992C50.0775 11.7415 50.4482 12.1732 50.9131 12.4941C51.3779 12.804 51.8815 12.959 52.4238 12.959Z" fill="#E9C818"/>
</svg>
