<svg width="24" height="19" viewBox="0 0 24 19" fill="none" xmlns="http://www.w3.org/2000/svg">
<path d="M12.334 14.6465C12.0762 14.6465 11.8564 14.5557 11.6748 14.374C11.499 14.1924 11.4111 13.9727 11.4111 13.7148V9.63672L8.15918 6.36719C7.83691 6.04492 7.62891 5.66113 7.53516 5.21582C7.44141 4.76465 7.48242 4.3252 7.6582 3.89746C7.83984 3.47559 8.11816 3.13574 8.49316 2.87793C8.87402 2.62012 9.2959 2.49121 9.75879 2.49121H14.1182C14.6279 2.49121 15.0586 2.66992 15.4102 3.02734C15.7676 3.37891 15.9463 3.80957 15.9463 4.31934V7.42188H18.6006C18.8525 7.42188 19.0664 7.5127 19.2422 7.69434C19.4238 7.87598 19.5146 8.0957 19.5146 8.35352C19.5146 8.60547 19.4238 8.82227 19.2422 9.00391C19.0664 9.17969 18.8525 9.26758 18.6006 9.26758H15.0146C14.7627 9.26758 14.5459 9.17969 14.3643 9.00391C14.1826 8.82227 14.0918 8.60547 14.0918 8.35352V6.13867C14.0918 6.02148 14.0625 5.91895 14.0039 5.83105C13.9453 5.7373 13.8369 5.69043 13.6787 5.69043H10.8486C10.749 5.69043 10.6816 5.73145 10.6465 5.81348C10.6113 5.88965 10.626 5.96582 10.6904 6.04199L13.002 8.61719C13.1719 8.81055 13.2568 9.02148 13.2568 9.25V13.7148C13.2568 13.9727 13.166 14.1924 12.9844 14.374C12.8027 14.5557 12.5859 14.6465 12.334 14.6465ZM5.79492 18.2412C5.12109 18.2412 4.48828 18.1152 3.89648 17.8633C3.31055 17.6113 2.79199 17.2598 2.34082 16.8086C1.89551 16.3633 1.54688 15.8447 1.29492 15.2529C1.04297 14.6611 0.916992 14.0283 0.916992 13.3545C0.916992 12.6748 1.04297 12.042 1.29492 11.4561C1.54688 10.8643 1.89551 10.3428 2.34082 9.8916C2.79199 9.44043 3.31055 9.08887 3.89648 8.83691C4.48828 8.58496 5.12109 8.45898 5.79492 8.45898C6.48047 8.45898 7.11621 8.58496 7.70215 8.83691C8.29395 9.08887 8.8125 9.44043 9.25781 9.8916C9.70898 10.3428 10.0605 10.8643 10.3125 11.4561C10.5645 12.042 10.6904 12.6748 10.6904 13.3545C10.6904 14.0283 10.5645 14.6611 10.3125 15.2529C10.0605 15.8447 9.70898 16.3633 9.25781 16.8086C8.8125 17.2598 8.29395 17.6113 7.70215 17.8633C7.11621 18.1152 6.48047 18.2412 5.79492 18.2412ZM5.79492 16.8789C6.44531 16.8789 7.03711 16.7178 7.57031 16.3955C8.10352 16.0791 8.52832 15.6543 8.84473 15.1211C9.16113 14.5879 9.31934 13.999 9.31934 13.3545C9.31934 12.7041 9.16113 12.1123 8.84473 11.5791C8.52832 11.0459 8.10352 10.6211 7.57031 10.3047C7.03711 9.98828 6.44531 9.83008 5.79492 9.83008C5.15039 9.83008 4.56152 9.98828 4.02832 10.3047C3.49512 10.6211 3.07031 11.0459 2.75391 11.5791C2.4375 12.1123 2.2793 12.7041 2.2793 13.3545C2.2793 13.999 2.4375 14.5879 2.75391 15.1211C3.07031 15.6543 3.49512 16.0791 4.02832 16.3955C4.56152 16.7178 5.15039 16.8789 5.79492 16.8789ZM21.2109 10.7354C21.0059 10.5537 20.9004 10.3691 20.8945 10.1816C20.8945 9.99414 20.9531 9.83594 21.0703 9.70703C21.1934 9.57812 21.3457 9.50195 21.5273 9.47852C21.7148 9.45508 21.8965 9.51953 22.0723 9.67188C22.5879 10.1289 22.9951 10.6738 23.2939 11.3066C23.5928 11.9336 23.7422 12.6162 23.7422 13.3545C23.7422 14.0283 23.6162 14.6611 23.3643 15.2529C23.1123 15.8447 22.7637 16.3633 22.3184 16.8086C21.873 17.2598 21.3545 17.6113 20.7627 17.8633C20.1709 18.1152 19.5381 18.2412 18.8643 18.2412C18.1904 18.2412 17.5547 18.1152 16.957 17.8633C16.3652 17.6113 15.8467 17.2598 15.4014 16.8086C14.9561 16.3633 14.6074 15.8447 14.3555 15.2529C14.1035 14.6611 13.9775 14.0283 13.9775 13.3545C13.9775 12.9971 14.0127 12.6543 14.083 12.3262C14.1592 11.9922 14.2676 11.6699 14.4082 11.3594C14.4961 11.1484 14.6221 11.0137 14.7861 10.9551C14.9561 10.8965 15.1201 10.8965 15.2783 10.9551C15.4424 11.0137 15.5654 11.1309 15.6475 11.3066C15.7354 11.4824 15.7266 11.6992 15.6211 11.957C15.4336 12.3965 15.3398 12.8623 15.3398 13.3545C15.3398 13.999 15.498 14.5879 15.8145 15.1211C16.1309 15.6543 16.5557 16.0791 17.0889 16.3955C17.6221 16.7178 18.2139 16.8789 18.8643 16.8789C19.5146 16.8789 20.1035 16.7178 20.6309 16.3955C21.1641 16.0791 21.5889 15.6543 21.9053 15.1211C22.2217 14.5879 22.3799 13.999 22.3799 13.3545C22.3799 12.833 22.2744 12.3467 22.0635 11.8955C21.8525 11.4443 21.5684 11.0576 21.2109 10.7354ZM18.7764 4.94336C18.4072 4.94336 18.0732 4.85547 17.7744 4.67969C17.4756 4.49805 17.2354 4.25781 17.0537 3.95898C16.8779 3.66016 16.79 3.3291 16.79 2.96582C16.79 2.60254 16.8779 2.27148 17.0537 1.97266C17.2354 1.67383 17.4756 1.43652 17.7744 1.26074C18.0732 1.0791 18.4072 0.988281 18.7764 0.988281C19.1396 0.988281 19.4678 1.0791 19.7607 1.26074C20.0596 1.43652 20.2969 1.67383 20.4727 1.97266C20.6484 2.27148 20.7363 2.60254 20.7363 2.96582C20.7363 3.3291 20.6484 3.66016 20.4727 3.95898C20.2969 4.25781 20.0596 4.49805 19.7607 4.67969C19.4678 4.85547 19.1396 4.94336 18.7764 4.94336Z" fill="#E9C818"/>
</svg>
